<svg width="61" height="61" viewBox="0 0 61 61" fill="none" xmlns="http://www.w3.org/2000/svg">
<g id="Search" opacity="0.6" clip-path="url(#clip0_192_3397)">
<path id="Vector" d="M39.25 35.5H37.275L36.575 34.825C39.025 31.975 40.5 28.275 40.5 24.25C40.5 15.275 33.225 8 24.25 8C15.275 8 8 15.275 8 24.25C8 33.225 15.275 40.5 24.25 40.5C28.275 40.5 31.975 39.025 34.825 36.575L35.5 37.275V39.25L48 51.725L51.725 48L39.25 35.5ZM24.25 35.5C18.025 35.5 13 30.475 13 24.25C13 18.025 18.025 13 24.25 13C30.475 13 35.5 18.025 35.5 24.25C35.5 30.475 30.475 35.5 24.25 35.5Z" fill="#84868D"/>
</g>
<defs>
<clipPath id="clip0_192_3397">
<rect width="60" height="60" fill="white" transform="translate(0.5 0.5)"/>
</clipPath>
</defs>
</svg>
