<svg width="18" height="18" viewBox="0 0 18 18" fill="none" xmlns="http://www.w3.org/2000/svg">
<g id="Icons">
<path id="Vector" d="M9.24129 4.95665L8.59144 4.3262C8.49137 4.22911 8.39464 4.13566 8.30045 4.04467C8.13511 3.88494 7.97761 3.73279 7.82362 3.58181C6.64998 2.43175 5.0518 2.12109 3.78893 2.66636L3.78877 2.66643C2.51966 3.2141 1.61937 4.62075 1.65079 6.21141L1.65079 6.21147C1.67452 7.41687 2.17886 8.49822 2.94193 9.59452L2.94221 9.59492C4.58024 11.951 6.79573 13.7371 9.19027 15.4937C10.9208 14.2285 12.5572 12.9263 13.9725 11.3953L13.9725 11.3953C15.2099 10.0567 16.2016 8.72954 16.606 7.10016L16.6061 7.09993C17.0248 5.41464 16.3051 3.66869 14.9591 2.85874L9.24129 4.95665ZM9.24129 4.95665L9.86784 4.30303M9.24129 4.95665L9.86784 4.30303M9.86784 4.30303C9.98321 4.18266 10.0817 4.07582 10.1724 3.9774C10.3398 3.79571 10.4808 3.64276 10.6527 3.4866L10.6531 3.48629M9.86784 4.30303L10.6531 3.48629M10.6531 3.48629C11.9872 2.27323 13.6893 2.09515 14.959 2.85865L10.6531 3.48629Z" stroke="#ECECEC" stroke-width="1.8"/>
</g>
</svg>
