<svg width="195" height="101" viewBox="0 0 195 101" fill="none" xmlns="http://www.w3.org/2000/svg">
<path d="M36 48H32V44H36V48ZM36 52V48H40V52H36ZM8 48V52H4V48H8ZM8 44H12V48H8V44ZM16 40V36H20V40H16ZM16 44H12V40H16V44ZM24 36H20V28H4V24H40V28H24V36ZM24 40V36H28V40H24ZM32 40V44H28V40H32ZM32 16V20H12V16H32Z" fill="white"/>
<path d="M77.0615 77.9281H73.0615V73.9281H77.0615V77.9281ZM77.0615 81.9281V77.9281H81.0615V81.9281H77.0615ZM49.0615 77.9281V81.9281H45.0615V77.9281H49.0615ZM49.0615 73.9281H53.0615V77.9281H49.0615V73.9281ZM57.0615 65.9281V73.9281H53.0615V65.9281H57.0615ZM57.0615 57.9281H61.0615V65.9281H57.0615V57.9281ZM65.0615 65.9281V57.9281H69.0615V65.9281H65.0615ZM65.0615 57.9281H61.0615V45.9281H65.0615V57.9281ZM73.0615 73.9281H69.0615V65.9281H73.0615V73.9281Z" fill="white"/>
<path d="M134.768 27.5182H138.768V71.5182H134.768V27.5182ZM98.7676 67.5182V63.5182H106.768V67.5182H98.7676ZM98.7676 31.5182V27.5182H118.768V43.5182H126.768V27.5182H130.768V71.5182H126.768V47.5182H118.768V51.5182H114.768V31.5182H98.7676ZM106.768 63.5182V59.5182H110.768V63.5182H106.768ZM114.768 51.5182V59.5182H110.768V51.5182H114.768ZM182.768 27.5182H186.768V51.5182H182.768V27.5182ZM146.768 43.5182V35.5182H150.768V43.5182H146.768ZM182.768 67.5182V59.5182H154.768V67.5182H182.768ZM154.768 51.5182V47.5182H166.768V51.5182H154.768ZM154.768 43.5182V47.5182H150.768V43.5182H154.768ZM154.768 31.5182V35.5182H150.768V31.5182H154.768ZM154.768 27.5182H166.768V31.5182H154.768V27.5182ZM170.768 43.5182V47.5182H166.768V43.5182H170.768ZM170.768 31.5182V35.5182H166.768V31.5182H170.768ZM170.768 35.5182H174.768V43.5182H170.768V35.5182ZM150.768 71.5182V55.5182H186.768V71.5182H150.768Z" fill="white"/>
</svg>
