<svg width="140" height="30" viewBox="0 0 140 30" fill="none" xmlns="http://www.w3.org/2000/svg">
<rect width="140" height="30" rx="5" fill="#FEE500"/>
<circle cx="12" cy="15" r="12" fill="#FEE500"/>
<rect x="6" y="8.56421" width="12.375" height="12.375" fill="white"/>
<path d="M4.4525 7.13627C4.70227 7.12124 4.95273 7.12124 5.2025 7.13627H19.3362C19.4087 7.12668 19.4824 7.13347 19.5518 7.15618C19.6213 7.1789 19.6847 7.21696 19.7375 7.26751C19.925 7.45876 19.8575 7.74378 19.8687 7.98378C19.8687 12.7938 19.8687 17.6063 19.8687 22.4213C19.8673 22.4873 19.8518 22.5523 19.8234 22.6119C19.7951 22.6716 19.7544 22.7245 19.7041 22.7674C19.6539 22.8102 19.5951 22.842 19.5317 22.8605C19.4683 22.8791 19.4017 22.884 19.3362 22.875H4.58375C4.52329 22.8776 4.46294 22.8677 4.4065 22.8459C4.35005 22.8241 4.29873 22.7908 4.25577 22.7482C4.2128 22.7055 4.17911 22.6545 4.15682 22.5982C4.13453 22.542 4.12412 22.4818 4.12625 22.4213V7.59376C4.11851 7.49138 4.14691 7.38951 4.20653 7.30592C4.26614 7.22232 4.35318 7.16231 4.4525 7.13627ZM7.68125 11.0512C7.68125 13.6762 7.68125 16.3012 7.68125 18.9262H10.6363C10.6363 17.625 10.6175 16.3012 10.6363 15.0187C10.9588 15.4687 11.255 15.9412 11.585 16.3875C12.1363 17.2425 12.7587 18.0487 13.2875 18.9187C14.2775 18.945 15.2675 18.9187 16.2613 18.9187C16.2613 18.795 16.28 18.6712 16.28 18.5437C16.28 16.0387 16.28 13.53 16.28 11.0437C15.2975 11.0437 14.3188 11.0437 13.34 11.0437C13.34 12.3525 13.34 13.6687 13.34 14.97C12.4288 13.6762 11.57 12.345 10.6363 11.0625C9.65375 11.0213 8.65625 11.0512 7.68125 11.0512Z" fill="#FEE500"/>
<path d="M6.01743 7.875H17.9859C18.288 7.875 18.5778 7.99501 18.7914 8.20862C19.005 8.42224 19.125 8.71196 19.125 9.01405V20.9826C19.125 21.1326 19.0954 21.2811 19.038 21.4198C18.9806 21.5584 18.8965 21.6843 18.7904 21.7904C18.6843 21.8965 18.5584 21.9806 18.4198 22.038C18.2811 22.0954 18.1326 22.125 17.9826 22.125H6.01743C5.86741 22.125 5.71885 22.0954 5.58024 22.038C5.44164 21.9806 5.3157 21.8965 5.20961 21.7904C5.10353 21.6843 5.01937 21.5584 4.96196 21.4198C4.90455 21.2811 4.875 21.1326 4.875 20.9826V9.01405C4.87589 8.71165 4.99665 8.42194 5.2108 8.20842C5.42495 7.9949 5.71503 7.875 6.01743 7.875Z" fill="#FEE500"/>
<path d="M12.0343 8.7915C8.30089 8.7915 5.29004 11.2002 5.29004 14.1243C5.29004 16.0223 6.54255 17.6843 8.42132 18.6333L7.78543 21.0083C7.77344 21.0439 7.7716 21.0821 7.7801 21.1187C7.78861 21.1553 7.80714 21.1888 7.8336 21.2154C7.87219 21.2495 7.92185 21.2683 7.97331 21.2684C8.01597 21.265 8.05645 21.2481 8.08892 21.2202L10.8252 19.3752C11.2291 19.431 11.6362 19.4599 12.044 19.4619C15.7726 19.4619 18.7883 17.0532 18.7883 14.1243C18.7883 11.1953 15.763 8.7915 12.0343 8.7915Z" fill="#3A1D1D"/>
<path d="M7.65043 13.2813H6.91338C6.82203 13.2839 6.7318 13.2605 6.65324 13.2138C6.61836 13.192 6.58838 13.1631 6.56517 13.1292C6.54195 13.0952 6.52602 13.0567 6.51836 13.0163C6.51602 12.9907 6.51602 12.9649 6.51836 12.9393C6.51607 12.8913 6.52538 12.8435 6.54551 12.7998C6.56563 12.7562 6.59598 12.7181 6.63397 12.6888C6.71796 12.6279 6.81933 12.5958 6.92301 12.5972H9.14381C9.23589 12.594 9.32673 12.6192 9.40395 12.6695C9.43965 12.6904 9.47027 12.7189 9.4936 12.7531C9.51692 12.7873 9.53237 12.8261 9.53884 12.867C9.54119 12.891 9.54119 12.9152 9.53884 12.9393C9.54111 12.9879 9.53182 13.0364 9.51172 13.0808C9.49162 13.1252 9.4613 13.1642 9.42322 13.1945C9.34128 13.2553 9.24089 13.286 9.139 13.2813H8.42603V15.8152C8.42893 15.8692 8.42057 15.9232 8.4015 15.9738C8.38242 16.0243 8.35305 16.0704 8.31523 16.1091C8.27897 16.146 8.23537 16.175 8.18725 16.194C8.13913 16.2131 8.08755 16.2219 8.03582 16.2199C7.94535 16.2224 7.8568 16.1935 7.78532 16.138C7.71727 16.0838 7.67109 16.0068 7.65525 15.9212C7.65049 15.886 7.65049 15.8504 7.65525 15.8152L7.65043 13.2813Z" fill="#FEE500"/>
<path d="M9.75137 12.7851C9.77256 12.7059 9.82232 12.6372 9.89108 12.5924C9.96434 12.5509 10.0478 12.5309 10.1319 12.5346H10.315C10.4043 12.5314 10.4927 12.5531 10.5703 12.5973C10.6526 12.6526 10.7111 12.7368 10.7341 12.8333L11.6976 15.5551C11.7226 15.6261 11.7435 15.6985 11.7602 15.7719C11.7619 15.8024 11.7619 15.8329 11.7602 15.8634C11.7618 15.9104 11.7532 15.9571 11.7349 16.0004C11.7166 16.0437 11.6891 16.0824 11.6542 16.1139C11.6205 16.1485 11.58 16.1758 11.5352 16.194C11.4904 16.2123 11.4424 16.2211 11.3941 16.2199C11.3198 16.2273 11.2452 16.2095 11.1822 16.1693C11.1193 16.1291 11.0718 16.0689 11.0472 15.9983L10.8449 15.4058H9.57795L9.37562 15.9983C9.35169 16.0703 9.30356 16.1316 9.23943 16.172C9.17531 16.2125 9.09916 16.2294 9.02395 16.2199C8.94249 16.222 8.8627 16.1966 8.79754 16.1476C8.73405 16.0972 8.69121 16.0252 8.6771 15.9454C8.67455 15.9181 8.67455 15.8907 8.6771 15.8634C8.66883 15.8156 8.66883 15.7668 8.6771 15.7189C8.6771 15.666 8.71082 15.6081 8.73009 15.5551L9.75137 12.7851ZM10.2331 13.4162L9.77546 14.8614H10.6859L10.2331 13.4162Z" fill="#FEE500"/>
<path d="M11.8705 12.9393C11.8656 12.8312 11.9037 12.7255 11.9765 12.6454C12.0135 12.6081 12.0579 12.579 12.1069 12.5599C12.1558 12.5408 12.2083 12.5322 12.2607 12.5346C12.351 12.5335 12.439 12.5623 12.5112 12.6165C12.5782 12.673 12.6226 12.7516 12.6365 12.8381C12.6412 12.8716 12.6412 12.9057 12.6365 12.9393V15.4732H13.9613C14.0531 15.472 14.1434 15.497 14.2214 15.5454C14.2565 15.5671 14.2866 15.5958 14.3099 15.6299C14.3331 15.6639 14.3489 15.7024 14.3563 15.743C14.3563 15.743 14.3563 15.7911 14.3563 15.8152C14.3586 15.8632 14.3493 15.911 14.3291 15.9546C14.309 15.9982 14.2787 16.0364 14.2407 16.0657C14.1567 16.1266 14.0553 16.1586 13.9516 16.1572H12.3234C12.2197 16.1639 12.1166 16.1369 12.0295 16.0802C11.9516 16.022 11.8997 15.9355 11.885 15.8393C11.8815 15.7864 11.8815 15.7333 11.885 15.6803L11.8705 12.9393Z" fill="#FEE500"/>
<path d="M14.4436 12.9393C14.4407 12.8315 14.4786 12.7266 14.5496 12.6455C14.6218 12.5798 14.7144 12.5411 14.8118 12.5358C14.9092 12.5306 15.0055 12.5591 15.0843 12.6165C15.1527 12.6725 15.1988 12.7511 15.2144 12.8381C15.2168 12.8718 15.2168 12.9056 15.2144 12.9393V14.1195L16.4332 12.7128C16.4801 12.6649 16.53 12.6199 16.5825 12.578C16.632 12.5485 16.6887 12.5335 16.7463 12.5346C16.8305 12.5341 16.9128 12.5594 16.9824 12.6069C17.0151 12.6289 17.0431 12.6574 17.0646 12.6905C17.0861 12.7236 17.1007 12.7607 17.1076 12.7996C17.1096 12.8091 17.1096 12.819 17.1076 12.8285C17.1053 12.8396 17.1053 12.8511 17.1076 12.8622C17.1074 12.9129 17.0942 12.9627 17.0691 13.0068C17.0435 13.0534 17.0128 13.097 16.9775 13.1368L16.1779 14.0136L17.1413 15.5069V15.5551C17.1913 15.6241 17.2304 15.7006 17.2569 15.7816V15.8056C17.2625 15.8614 17.2545 15.9178 17.2335 15.9698C17.2125 16.0218 17.1792 16.0679 17.1365 16.1043C17.0561 16.165 16.9578 16.1973 16.8571 16.1958C16.7902 16.1986 16.7237 16.1836 16.6644 16.1524C16.6002 16.1094 16.5474 16.0516 16.5103 15.9838L15.6142 14.5386L15.1855 14.9867V15.7911C15.1884 15.8989 15.1505 16.0039 15.0795 16.085C15.0414 16.1222 14.9961 16.1513 14.9464 16.1703C14.8967 16.1894 14.8436 16.1981 14.7905 16.1958C14.7016 16.1977 14.6148 16.1687 14.5448 16.1139C14.4767 16.0597 14.4305 15.9827 14.4147 15.8972C14.4099 15.862 14.4099 15.8263 14.4147 15.7911L14.4436 12.9393Z" fill="#FEE500"/>
<path d="M31.4425 9.52637C31.4278 13.291 30.1534 16.7334 25.4659 19.0332L24.8214 18.1543C27.275 16.9678 28.7472 15.459 29.5382 13.7012L25.0704 14.126L24.88 13.1152L29.8897 12.7783C30.1168 12.0459 30.2486 11.2769 30.2999 10.4785H25.5392V9.52637H31.4425ZM34.7677 8.16406V13.4668H36.8771V14.4336H34.7677V21.1865H33.6251V8.16406H34.7677ZM44.3063 9.52637C44.2917 13.291 43.0173 16.7334 38.3298 19.0332L37.6853 18.1543C40.1389 16.9678 41.611 15.459 42.4021 13.7012L37.9343 14.126L37.7438 13.1152L42.7536 12.7783C42.9807 12.0459 43.1125 11.2769 43.1638 10.4785H38.403V9.52637H44.3063ZM47.6315 8.16406V13.4668H49.7409V14.4336H47.6315V21.1865H46.489V8.16406H47.6315ZM56.3499 9.01367C59.1185 9.02832 61.1106 10.376 61.1106 12.4268C61.1106 14.3677 59.3821 15.6567 56.9065 15.8105V18.5498H62.3411V19.5166H50.4173V18.5498H55.7786V15.8105C53.3104 15.6494 51.5892 14.3604 51.5892 12.4268C51.5892 10.376 53.5813 9.02832 56.3499 9.01367ZM56.3499 9.96582C54.2405 9.96582 52.7024 10.9619 52.7024 12.4268C52.7024 13.9355 54.2405 14.9023 56.3499 14.917C58.4593 14.9023 59.9974 13.9355 59.9974 12.4268C59.9974 10.9619 58.4593 9.96582 56.3499 9.96582ZM75.1464 15.1953V16.1328H63.2665V15.1953H68.6278V13.8037H64.8485V8.51562H73.6669V9.43848H66.0058V10.6836H73.3153V11.5771H66.0058V12.9102H73.7401V13.8037H69.7704V15.1953H75.1464ZM73.6083 17.29V21.1865H72.4364V18.2275H64.5995V17.29H73.6083ZM85.6983 16.3965C88.4962 16.3965 90.2687 17.2754 90.2687 18.7842C90.2687 20.2783 88.4962 21.1572 85.6983 21.1572C82.9151 21.1572 81.1427 20.2783 81.1427 18.7842C81.1427 17.2754 82.9151 16.3965 85.6983 16.3965ZM85.6983 17.2754C83.6183 17.29 82.2706 17.8613 82.2853 18.7842C82.2706 19.6924 83.6183 20.249 85.6983 20.249C87.7784 20.249 89.1114 19.6924 89.1261 18.7842C89.1114 17.8613 87.7784 17.29 85.6983 17.2754ZM90.1661 8.83789V9.93652C90.1661 10.9912 90.1661 12.0459 89.7999 13.3936L88.672 13.2617C89.0235 11.9141 89.0235 10.9619 89.0235 9.93652V9.77539H81.2306V8.83789H90.1661ZM91.6749 14.2432V15.1807H79.8243V14.2432H84.7315V11.7236H85.8595V14.2432H91.6749ZM104.583 15.5908V16.543H101.433V21.1865H100.276V16.543H96.9362V21.1865H95.7497V16.543H92.6589V15.5908H104.583ZM98.5915 8.69141C101.331 8.69141 103.176 9.79004 103.176 11.5332C103.176 13.2617 101.331 14.3604 98.5915 14.3457C95.8522 14.3604 94.0065 13.2617 94.0065 11.5332C94.0065 9.79004 95.8522 8.69141 98.5915 8.69141ZM98.5915 9.62891C96.5554 9.62891 95.1784 10.376 95.1931 11.5332C95.1784 12.6904 96.5554 13.4229 98.5915 13.4229C100.613 13.4229 102.005 12.6904 102.005 11.5332C102.005 10.376 100.613 9.62891 98.5915 9.62891ZM115.616 8.16406V13.54H117.798V14.4922H115.616V21.1865H114.473V8.16406H115.616ZM113.213 10.2588V11.2109H105.464V10.2588H108.819V8.3252H109.961V10.2588H113.213ZM109.405 12.2949C111.25 12.2949 112.583 13.5254 112.598 15.2832C112.583 17.041 111.25 18.2715 109.405 18.2715C107.544 18.2715 106.197 17.041 106.211 15.2832C106.197 13.5254 107.544 12.2949 109.405 12.2949ZM109.405 13.2617C108.189 13.2617 107.295 14.1113 107.31 15.2832C107.295 16.4697 108.189 17.3047 109.405 17.29C110.606 17.3047 111.485 16.4697 111.499 15.2832C111.485 14.1113 110.606 13.2617 109.405 13.2617ZM129.168 8.16406V21.1865H128.011V8.16406H129.168ZM125.315 9.58496C125.301 13.335 123.558 16.6455 119.192 18.7402L118.562 17.8027C122.085 16.1328 123.88 13.6353 124.143 10.5225H119.163V9.58496H125.315Z" fill="#3A1D1D"/>
</svg>
