<svg width="17" height="18" viewBox="0 0 17 18" fill="none" xmlns="http://www.w3.org/2000/svg">
<g id="mynaui:star-solid">
<path id="Vector" d="M9.14019 3.00492C8.69907 2.20319 7.53808 2.20319 7.09628 3.00492C6.5153 4.06063 6.03638 5.16936 5.66602 6.31605C5.64855 6.36091 5.61783 6.39938 5.57794 6.42634C5.53805 6.45329 5.49089 6.46745 5.44275 6.46692C4.4502 6.49272 3.46089 6.59131 2.48277 6.76191C1.5782 6.91955 1.1797 8.00476 1.86709 8.67659C2.6058 9.39968 3.39534 10.0689 4.22966 10.6792C4.26286 10.7016 4.28791 10.7341 4.30109 10.7719C4.31426 10.8098 4.31484 10.8508 4.30273 10.889C3.93161 12.004 3.66657 13.1516 3.51115 14.3165C3.3826 15.2799 4.40219 15.8712 5.19851 15.4626C6.16524 14.9671 7.08962 14.393 7.96229 13.7461C8.00799 13.7138 8.06259 13.6964 8.11858 13.6964C8.17456 13.6964 8.22916 13.7138 8.27486 13.7461C9.14702 14.3938 10.0715 14.9679 11.0386 15.4626C11.835 15.8712 12.8552 15.2799 12.7267 14.3165C12.571 13.1518 12.3057 12.0044 11.9344 10.8896C11.9224 10.8513 11.9232 10.8102 11.9367 10.7724C11.9501 10.7345 11.9754 10.7021 12.0088 10.6799C12.8427 10.0696 13.6318 9.40031 14.3701 8.67727C15.0575 8.00476 14.659 6.91955 13.7544 6.76191C12.776 6.59128 11.7865 6.49269 10.7937 6.46692C10.7457 6.46731 10.6987 6.45309 10.6589 6.42615C10.6192 6.3992 10.5886 6.3608 10.5711 6.31605C10.2019 5.16892 9.72229 4.06008 9.14019 3.00492Z" fill="#FFCD29"/>
</g>
</svg>
